<svg xmlns="http://www.w3.org/2000/svg" viewBox="0 0 188.976 188.976" xml:space="preserve">
    <g clip-path="url(#a)" transform="matrix(1.33333 0 0 -1.33333 0 188.976)">
        <path style="fill:#25171a;fill-opacity:1;fill-rule:nonzero;stroke:none" d="M0 0c-.722-3.779-2.22-7.416-4.244-10.708-2.039-3.283-4.62-6.249-7.673-8.59 2.678 2.754 5.084 5.719 7.076 8.959C-2.832-7.109-1.256-3.631 0 0" transform="translate(108.963 60.664)"/>
        <path style="fill:#25171a;fill-opacity:1;fill-rule:nonzero;stroke:none" d="M0 0c1.255-3.631 2.831-7.109 4.841-10.339 1.992-3.24 4.397-6.205 7.076-8.959-3.054 2.341-5.635 5.307-7.674 8.59C2.219-7.416.721-3.779 0 0" transform="translate(32.927 60.664)"/>
        <path style="fill:#25171a;fill-opacity:1;fill-rule:nonzero;stroke:none" d="m0 0 5.654-1.69zm1.805 19.541-6.328-5.197h-.001Zm6.008 15.315h.001L2.204 20.06Zm6.854 8.746v-.001l-4.771-9.727Zm17.094-3.099-3.653.37zm9.455-9.995-2.612-.487zm6.414-20.451-3.285 6.868h.001zM16.748-1.79l21.205-.003v-.001Zm-10.385.002 9.698-.002ZM1.99 19.365c.007-.003.015-.002.022-.004l-1.84-5.017a.684.684 0 0 1-.858-.658c0-.223.109-.419.274-.544L-6.773 2.856l-.044.023 2.192 10.758A.366.366 0 0 1-4.28 14a.363.363 0 0 1-.05.175zm12.733 23.782-2.019-15.236a.701.701 0 0 1-.131-.019l-2.521 5.39c.059.065.098.15.098.246a.366.366 0 0 1-.052.179zM48.635 7.122l-9.976 5.034c0 .008.005.016.005.025a.32.32 0 0 1-.049.163l5.28 4.544a.326.326 0 0 1 .204-.076c.007 0 .013.004.021.004l4.604-9.634a.421.421 0 0 1-.089-.06m1.333-4.145-.755 3.413c.016.011.034.018.049.032l.712-3.444-.006-.001M28.544 1.273a.679.679 0 0 1 1.115.011l8.207-2.824H17.423ZM5.501 4.302l3.147-1.744a.358.358 0 0 1-.068-.203c0-.101.041-.193.108-.26L6.18-1.339a.356.356 0 0 1-.142.037L5.363 4.23a.365.365 0 0 1 .138.072m6.834 22.383a.678.678 0 0 1 .406-.137c.035 0 .07.005.104.011l3.334-13.36a.687.687 0 0 1-.256-.157l-8.73 7.311c.013.043.027.086.027.134a.47.47 0 0 1-.149.342zm2.686 16.773a.327.327 0 0 1 .239.224l12.208-2.956a.331.331 0 0 1 .2-.258l-1.659-8.577a.473.473 0 0 1-.145.029.474.474 0 0 1-.474-.474c0-.019.008-.035.01-.053l-12.06-3.838a.675.675 0 0 1-.385.322zm12.483-2.48-12.279 2.974c-.008.012-.016.025-.025.036l5.619 6.635a.313.313 0 0 1 .1-.021c.023 0 .044.009.065.013zM48.465 6.736l-18.71-4.889a.67.67 0 0 1-.074.176l8.543 9.843a.338.338 0 0 1 .105-.021.33.33 0 0 1 .216.085l9.944-5.019a.5.5 0 0 1-.03-.149c0-.009.005-.017.006-.026M29.772 1.59l18.742 4.896L38.561-1.4a.362.362 0 0 1-.308.177.365.365 0 0 1-.325-.204l-8.206 2.823c.027.06.043.125.05.194M16.645 13.194l1.394 5.102a.364.364 0 0 1 .128-.025c.041 0 .079.01.115.023l10.24-16.083-11.53 10.003c.06.101.096.217.096.343 0 .293-.186.54-.443.637M9.217 2.604l6.839 9.368a.676.676 0 0 1 .285-.093v-13.19a.364.364 0 0 1-.219-.126L9.313 2.334c0 .008.004.014.004.021 0 .097-.04.184-.1.249M5.629 4.61l10.307 7.452c.005-.006.011-.01.017-.015L9.114 2.68a.36.36 0 0 1-.166.044.364.364 0 0 1-.208-.073l-3.158 1.75c.03.054.053.113.053.178 0 .011-.005.021-.006.031M.606 13.38l4.225-1.207a.36.36 0 0 1 .309-.291V4.923l-.033-.015-4.715 8.22a.68.68 0 0 1 .214.252m15.119-.783-10.173-.343a.357.357 0 0 1-.101.24l1.361 7.532c.138.02.252.096.325.208l8.705-7.29a.658.658 0 0 1-.117-.347M5.521 4.845a.4.4 0 0 1-.128.078v7.022a.356.356 0 0 1 .138.181l10.198.345a.658.658 0 0 1 .058-.204zm7.733 21.938 13.644-8.026c-.001-.01-.005-.019-.005-.029l-8.436.129a.364.364 0 0 1-.29.151c-.012 0-.022-.006-.034-.007l-4.925 7.734c.017.015.031.032.046.048m24.893 2.783a.328.328 0 0 1 .119-.048V12.503a.307.307 0 0 1-.135-.06l-10.339 6.082a.47.47 0 0 1 .049.201.464.464 0 0 1-.098.274zM29.51 2.213a.674.674 0 0 1-.369.138l-1.657 15.924a.482.482 0 0 1 .133.059l10.386-6.108c-.003-.016-.01-.03-.01-.045 0-.055.016-.104.039-.149zM18.518 18.729l8.4-.128a.464.464 0 0 1 .311-.322l1.661-15.96a.569.569 0 0 1-.108-.044l-10.303 16.18a.347.347 0 0 1 .057.184c0 .032-.011.06-.018.09m7.346 12.243c.015 0 .029.007.043.009l1.233-11.846a.464.464 0 0 1-.152-.137l-13.605 8.004a.694.694 0 0 1 .042.229c0 .029-.005.055-.008.082l12.08 3.844a.467.467 0 0 1 .367-.185m-12.869-4.374 4.906-7.706a.363.363 0 0 1 .026-.527l-1.405-5.136a.569.569 0 0 1-.22 0l-3.334 13.36.027.009m-6.52-6.49c.028-.019.052-.043.084-.056l-1.345-7.448c-.01.001-.019.006-.028.006a.367.367 0 0 1-.314-.185L.676 13.624c.002.021.006.04.006.062a.676.676 0 0 1-.123.389zM49.532 2.51c0-.034.013-.065.02-.097L38.959-1.408l9.773 7.744a.47.47 0 0 1 .202-.048.48.48 0 0 1 .164.033l.746-3.37a.469.469 0 0 1-.312-.441m-5.769 14.637c0-.06.02-.114.049-.163l-5.279-4.545a.326.326 0 0 1-.14.064v17.015a.164.164 0 0 0 .011.003l5.503-12.106a.329.329 0 0 1-.144-.268m-5.704 12.882a.327.327 0 0 1-.066-.189.33.33 0 0 1 .064-.185L27.655 19.092a.462.462 0 0 1-.266.103L26.152 31.08a.462.462 0 0 1 .186.366.467.467 0 0 1-.212.385l1.666 8.611h.001c.066 0 .126.025.178.059zm-35.92-10.69a.366.366 0 0 1 .358.359l3.783.746a.48.48 0 0 1 .03-.142L.378 14.254c-.027.017-.057.032-.087.047ZM-6.665 2.79l6.36 10.285a.687.687 0 0 1 .303-.073c.102 0 .196.023.283.062l4.722-8.228a.36.36 0 0 1-.106-.257c0-.026.01-.05.016-.075L-6.421 2.431a.683.683 0 0 1-.244.359M6.361-1.54a.35.35 0 0 1-.078.128l2.509 3.436a.359.359 0 0 1 .492.181l6.761-3.745zm10.343.076a.364.364 0 0 1-.236.153v13.19a.68.68 0 0 1 .358.143L28.464 1.926a.669.669 0 0 1-.028-.418zm24.581 31.727a.46.46 0 0 1 .355-.229l2.198-12.161-5.317 11.7a.325.325 0 0 1 .129.198zm-6.418 9.671a.331.331 0 0 1 .317-.244l.004.001 2.906-9.514-10.032 10.412c.007.011.015.02.022.032zM9.818 33.167l.007.001 2.518-5.383a.681.681 0 0 1-.102-1.016L6.965 20.9a.458.458 0 0 1-.219.061.468.468 0 0 1-.456-.386l-3.814-.751a.374.374 0 0 1-.034.066Zm-1.767 1.598c.116 0 .215.057.283.141l1.115-1.223a.38.38 0 0 1-.036-.155c0-.122.063-.225.153-.292L2.947 21.304 8.05 34.765ZM-6.399 2.177c.002.023.006.046.006.069 0 .021-.003.04-.005.06l11.36 2.078a.36.36 0 0 1 .275-.167l.675-5.536a.373.373 0 0 1-.183-.129Zm57.709.603-.888 4.293-.031.152-.068.138-4.887 10.222-2.524 13.245-.236 1.241-1.241-.232-2.145-.4-2.849 9.092-.251.798-.832.084-6.781.688-6.612 9.635-.933 1.36-1.074-1.25-6.084-7.075-.106-.123-.072-.146-4.277-8.723-.542.51-1.382 1.304-.674-1.777-5.788-15.268-6.586-5.408-.346-.285-.091-.439-2.451-11.888-.101-.483.254-.424.088-.147.253-.423.471-.141L5.619-3.003l.178-.054h.185l32.219-.005h.221l.208.075 11.826 4.244.449.161.232.418.041.073.227.411z" transform="translate(49.415 49.726)"/>
        <path style="fill:#25171a;fill-opacity:1;fill-rule:nonzero;stroke:none" d="m0 0 .89.145-.352 2.163 1.319.213.351-2.163 1.66.27.284-1.749-5.187-.842-.685 4.217 1.32.214Z" transform="translate(31.237 64.079)"/>
        <path style="fill:#25171a;fill-opacity:1;fill-rule:nonzero;stroke:none" d="m0 0 .015-.646 1.231.027-.015.646C1.221.515.982.743.6.734.217.727-.011.488 0 0m2.572-.108.011-.48 1.321.029.039-1.773-5.256-.116-.056 2.531c-.032 1.463.713 2.412 1.93 2.439.757.016 1.336-.331 1.673-.955l1.598 1.14.041-1.893z" transform="translate(30.718 69.908)"/>
        <path style="fill:#25171a;fill-opacity:1;fill-rule:nonzero;stroke:none" d="m0 0 1.327-.156-.511-4.34-5.218.615.499 4.242 1.327-.156-.296-2.513.611-.071.26 2.206 1.268-.149-.26-2.207.686-.08z" transform="translate(33.788 77.48)"/>
        <path style="fill:#25171a;fill-opacity:1;fill-rule:nonzero;stroke:none" d="m0 0 1.294-.334L.203-4.563l-5.087 1.312L-3.817.884l1.294-.333-.632-2.449.595-.154.555 2.151L-.769-.22l-.555-2.151.669-.173z" transform="translate(35.02 82.396)"/>
        <path style="fill:#25171a;fill-opacity:1;fill-rule:nonzero;stroke:none" d="m0 0-.917 1.072c.478.32.933.835 1.183 1.356.216.453.2.661.037.739-.595.286-1.37-2.563-3.137-1.717-.88.422-1.243 1.503-.539 2.972.305.636.755 1.227 1.269 1.589l.927-1.035c-.461-.354-.787-.739-.984-1.152-.224-.467-.16-.68.002-.758.568-.273 1.35 2.574 3.096 1.737.867-.416 1.244-1.504.54-2.972C1.098 1.039.519.334 0 0" transform="translate(36.735 84.464)"/>
        <path style="fill:#25171a;fill-opacity:1;fill-rule:nonzero;stroke:none" d="M0 0c-.677.461-1.383.306-1.75-.234-.368-.54-.254-1.254.422-1.715.678-.461 1.383-.305 1.75.235C.79-1.174.677-.46 0 0m-2.334-3.427c-1.315.897-1.565 2.584-.603 4 .964 1.415 2.626 1.801 3.943.905 1.315-.896 1.566-2.584.602-3.999-.963-1.416-2.626-1.802-3.942-.906" transform="translate(39.351 93.6)"/>
        <path style="fill:#25171a;fill-opacity:1;fill-rule:nonzero;stroke:none" d="M0 0c-1.174 1.107-1.148 2.786.01 4.015.706.747 1.534 1.079 2.382.992l-.041-1.498c-.496.044-.913-.069-1.237-.412-.505-.536-.472-1.246.112-1.798.584-.55 1.295-.54 1.799-.005.325.344.413.766.34 1.258l1.494.128c.136-.84-.147-1.687-.853-2.435C2.848-.984 1.174-1.106 0 0" transform="translate(40.79 95.567)"/>
        <path style="fill:#25171a;fill-opacity:1;fill-rule:nonzero;stroke:none" d="m0 0 1.35 1.149 3.408-4.002-1.349-1.148Z" transform="translate(43.258 101.8)"/>
        <path style="fill:#25171a;fill-opacity:1;fill-rule:nonzero;stroke:none" d="m0 0 .759-1.1-3.595-2.482L-5.821.743l3.514 2.426.76-1.099L-3.629.632l.35-.506 1.828 1.262.725-1.05-1.829-1.262.393-.569z" transform="translate(51.396 103.025)"/>
        <path style="fill:#25171a;fill-opacity:1;fill-rule:nonzero;stroke:none" d="m0 0-1.372-.699-.625 1.225 4.323 2.203.624-1.225L1.579.805l1.763-3.46-1.579-.804Z" transform="translate(51.867 106.156)"/>
        <path style="fill:#25171a;fill-opacity:1;fill-rule:nonzero;stroke:none" d="m0 0 .632-1.799-1.672-.588-.64 1.822-2.972 2.482 1.764.619 1.616-1.359.418 2.073 1.615.567z" transform="translate(59.032 107.078)"/>
        <path style="fill:#25171a;fill-opacity:1;fill-rule:nonzero;stroke:none" d="M0 0c-.051.379-.312.58-.795.516l-.64-.085.162-1.22.639.085C-.15-.641.05-.379 0 0m1.771.234C1.93-.972 1.107-1.852-.344-2.044l-.751-.099.169-1.28-1.757-.232-.687 5.208 2.508.332c1.451.192 2.473-.446 2.633-1.651" transform="translate(66.386 110.056)"/>
        <path style="fill:#25171a;fill-opacity:1;fill-rule:nonzero;stroke:none" d="m0 0-.646.011-.019-1.232.645-.01c.489-.008.725.221.731.604C.718-.245.488-.008 0 0m-.206-2.565-.481.007-.021-1.321-1.772.029.084 5.256 2.531-.041C1.6 1.341 2.518.561 2.499-.656c-.013-.759-.382-1.323-1.019-1.636l1.078-1.64-1.892.031z" transform="translate(71.456 110.911)"/>
        <path style="fill:#25171a;fill-opacity:1;fill-rule:nonzero;stroke:none" d="M0 0c.141.806-.292 1.384-.936 1.496-.643.112-1.246-.286-1.385-1.092-.141-.806.293-1.384.935-1.496C-.742-1.204-.14-.806 0 0m-4.082.709c.272 1.569 1.706 2.493 3.392 2.2C.996 2.615 2.033 1.262 1.761-.306 1.488-1.874.055-2.797-1.631-2.505-3.317-2.211-4.354-.858-4.082.709" transform="translate(78.705 108.875)"/>
        <path style="fill:#25171a;fill-opacity:1;fill-rule:nonzero;stroke:none" d="m0 0 1.254.778c.158-.413.355-.659.634-.748.35-.113.612.038.744.446l.613 1.901-1.701.549.411 1.272L5.32 3.111 4.329.039c-.443-1.372-1.382-1.811-2.725-1.377C.825-1.087.258-.62 0 0" transform="translate(79.977 106.625)"/>
        <path style="fill:#25171a;fill-opacity:1;fill-rule:nonzero;stroke:none" d="m0 0-.566-1.21L-4.522.643l2.227 4.758L1.573 3.59l-.566-1.21-2.291 1.073-.261-.557 2.012-.943L-.074.797l-2.012.943-.293-.626Z" transform="translate(88.823 103.87)"/>
        <path style="fill:#25171a;fill-opacity:1;fill-rule:nonzero;stroke:none" d="M0 0c.885 1.351 2.542 1.622 3.956.695C4.817.132 5.29-.626 5.354-1.476L3.87-1.699c-.044.496-.228.886-.624 1.145-.616.403-1.31.247-1.751-.425-.439-.672-.305-1.371.312-1.774.395-.26.827-.272 1.297-.114l.39-1.449c-.804-.282-1.688-.152-2.549.412C-.469-2.979-.885-1.351 0 0" transform="translate(89.966 104.733)"/>
        <path style="fill:#25171a;fill-opacity:1;fill-rule:nonzero;stroke:none" d="m0 0-1.159 1.012.903 1.035 3.653-3.19-.903-1.035-1.159 1.012-2.553-2.923-1.335 1.165z" transform="translate(96.577 101.588)"/>
        <path style="fill:#25171a;fill-opacity:1;fill-rule:nonzero;stroke:none" d="m0 0-1.103-.756-2.472 3.604L.759 5.822l2.419-3.523-1.103-.757L.643 3.629l-.508-.348 1.259-1.833L.34.726-.918 2.559l-.569-.392Z" transform="translate(103.146 90.141)"/>
        <path style="fill:#25171a;fill-opacity:1;fill-rule:nonzero;stroke:none" d="m0 0 2.597 1.272.78-1.592-2.55-1.249c-.722-.353-.856-.763-.639-1.207.219-.445.624-.59 1.346-.236l2.55 1.249.767-1.565L2.254-4.6c-1.417-.694-2.65-.244-3.359 1.206C-1.816-1.944-1.416-.694 0 0" transform="translate(104.416 90.044)"/>
        <path style="fill:#25171a;fill-opacity:1;fill-rule:nonzero;stroke:none" d="m0 0-.191.617L-1.367.25l.192-.616c.145-.466.436-.619.802-.505.365.114.519.405.373.871m-2.5-.605-.143.459-1.261-.393-.527 1.692L.587 2.714 1.339.298C1.773-1.1 1.318-2.216.157-2.578c-.723-.225-1.375-.05-1.871.456l-1.221-1.536-.562 1.807z" transform="translate(109.192 82.667)"/>
        <path style="fill:#25171a;fill-opacity:1;fill-rule:nonzero;stroke:none" d="M0 0c.81.115 1.226.706 1.134 1.352-.092.647-.656 1.097-1.467.982-.81-.116-1.227-.706-1.135-1.353C-1.375.335-.811-.116 0 0m-.585 4.103c1.576.225 2.898-.854 3.139-2.549C2.795-.14 1.827-1.545.251-1.77c-1.575-.223-2.897.855-3.138 2.55-.242 1.695.726 3.098 2.302 3.323" transform="translate(109.499 75.136)"/>
        <path style="fill:#25171a;fill-opacity:1;fill-rule:nonzero;stroke:none" d="M0 0c.383-.006.62.223.628.711l.01.645-1.232.02-.01-.645C-.611.243-.383.006 0 0m-.028-1.787c-1.217.019-1.968.963-1.945 2.427l.013.758-1.291.021.028 1.773 5.256-.085-.041-2.53c-.023-1.465-.805-2.384-2.02-2.364" transform="translate(110.35 69.348)"/>
        <path style="fill:#25171a;fill-opacity:1;fill-rule:nonzero;stroke:none" d="m0 0-1.32.205.674 4.317 5.192-.809-.658-4.221-1.321.206.39 2.5-.608.095L2.006.097.745.294l.343 2.195-.683.107Z" transform="translate(107.628 62.682)"/>
        <path style="fill:#25171a;fill-opacity:1;fill-rule:nonzero;stroke:none" d="M0 0a181.722 181.722 0 0 0 1.437 1.818l.83 1.032c.279.345.542.668.789.965l-1.052-.623L.999 2.6a71.016 71.016 0 0 0-.867-.504 97.415 97.415 0 0 0-.631-.362 8.18 8.18 0 0 0-.372-.136 2.472 2.472 0 0 0-.34-.094 1.192 1.192 0 0 0-.294-.026.438.438 0 0 0-.227.063.39.39 0 0 0-.167.178c-.028.066-.019.135.026.208l.028.041c.01.012.023.024.038.035a76.806 76.806 0 0 0 1.537 2.6l.184.296c.062.099.123.196.186.289a33.188 33.188 0 0 0-.912-.597c-.322-.203-.646-.4-.974-.588a18.385 18.385 0 0 0-.979-.525 11.058 11.058 0 0 0-.928-.414 5.344 5.344 0 0 0-.819-.251 1.782 1.782 0 0 0-.648-.037 3.062 3.062 0 0 0-.397.093 1.237 1.237 0 0 0-.267.12c-.108.067-.174.139-.2.214a.233.233 0 0 0 .02.208.456.456 0 0 0 .239.176c.114.042.241.05.382.024.172-.032.397-.006.674.077s.584.203.922.359c.337.155.694.341 1.071.555a38.952 38.952 0 0 1 2.2 1.35 78.915 78.915 0 0 1 1.609 1.094c.179.127.292.205.336.236.099.067.2.098.3.094a.548.548 0 0 0 .269-.08c.107-.067.164-.142.17-.227.006-.084-.038-.201-.131-.351a19.772 19.772 0 0 0-.544-1.109 15.903 15.903 0 0 0-.326-.581 42.624 42.624 0 0 0-.427-.703c-.117-.189-.25-.394-.398-.618a26.912 26.912 0 0 1-.486-.757c.765.431 1.441.809 2.027 1.136.586.327 1.087.596 1.501.805.414.211.745.357.992.442.248.085.414.102.497.05l.032-.02a.13.13 0 0 1 .029-.014.191.191 0 0 0 .028-.015c.071-.044.1-.124.087-.24a1.003 1.003 0 0 0-.154-.39c-.103-.14-.235-.311-.394-.515-.16-.204-.337-.427-.53-.669-.195-.243-.4-.499-.616-.766-.216-.27-.431-.535-.644-.799-.213-.264-.42-.52-.618-.77S1.717.706 1.561.501a.723.723 0 0 1-.083-.114L1.4.264a16.837 16.837 0 0 1-.141-.239 6.847 6.847 0 0 0-.142-.239 3.028 3.028 0 0 0-.182-.264.757.757 0 0 0-.227-.201.526.526 0 0 0-.303-.06.903.903 0 0 0-.402.152.279.279 0 0 0-.137.212C-.144-.284-.1-.158 0 0" transform="translate(51.924 34.423)"/>
        <path style="fill:#25171a;fill-opacity:1;fill-rule:nonzero;stroke:none" d="M0 0a1.012 1.012 0 0 1-.491.056 1.474 1.474 0 0 1-.498-.16 1.633 1.633 0 0 1-.43-.327 1.374 1.374 0 0 1-.352-.663.727.727 0 0 1-.018-.231.452.452 0 0 1 .073-.212.417.417 0 0 1 .212-.156.961.961 0 0 1 .488-.05c.174.025.343.082.504.169.162.087.308.199.438.338a1.454 1.454 0 0 1 .357.67.575.575 0 0 1 .016.217.429.429 0 0 1-.079.199A.49.49 0 0 1 0 0m.591.769C.717.72.844.652.975.563c.129-.087.24-.194.332-.32a.96.96 0 0 0 .118-.958 1.956 1.956 0 0 0-.17-.322 2.93 2.93 0 0 0-.272-.352.3.3 0 0 1 .08-.128.468.468 0 0 1 .129-.078.6.6 0 0 1 .252-.029c.1.007.205.025.319.053.112.028.228.065.348.109.119.045.234.092.343.141a6.35 6.35 0 0 1 .53.259.124.124 0 0 0 .098.002c.046-.018.078-.057.096-.119a.35.35 0 0 0-.023-.22.781.781 0 0 0-.191-.267 1.177 1.177 0 0 0-.419-.241l-.385-.191a3.833 3.833 0 0 0-.448-.19 2.183 2.183 0 0 0-.456-.112.803.803 0 0 0-.415.041.868.868 0 0 0-.235.134 1 1 0 0 0-.194.223 3.271 3.271 0 0 0-.599-.347 2.714 2.714 0 0 0-2.079-.042 1.251 1.251 0 0 0-.578.493 1.11 1.11 0 0 0-.152.435c-.024.164.003.343.077.537.051.131.133.281.247.448.113.168.252.333.414.496.163.162.349.313.556.454.207.14.432.253.676.335.243.081.501.123.774.126C.021.935.302.88.591.769" transform="translate(57.368 34.888)"/>
        <path style="fill:#25171a;fill-opacity:1;fill-rule:nonzero;stroke:none" d="M0 0c.105.13.218.219.338.266.121.046.23.057.33.032A.334.334 0 0 0 .866.154c.05-.076.061-.173.032-.289a.733.733 0 0 0-.148-.29c.1.077.231.15.396.215.166.066.343.119.533.158.189.038.38.061.572.068.192.007.369-.009.529-.049a.784.784 0 0 0 .422-.242c.101-.119.125-.281.073-.49a1.464 1.464 0 0 0-.151-.371 2.874 2.874 0 0 0-.246-.364 4.353 4.353 0 0 0-.297-.344 6.84 6.84 0 0 0-.308-.307l-.274-.262a5.125 5.125 0 0 1-.198-.199.3.3 0 0 1-.114-.173.115.115 0 0 1 .008-.078c.012-.025.036-.042.075-.052a.533.533 0 0 1 .084-.013.31.31 0 0 1 .125.027c.203.022.413.062.631.117.219.055.431.117.638.187.206.072.398.146.575.224.177.078.326.15.448.219a.338.338 0 0 0 .095.031c.03.003.058.002.081-.004a.16.16 0 0 0 .119-.101.27.27 0 0 0 .007-.181.798.798 0 0 0-.186-.329 1.166 1.166 0 0 0-.407-.287l-.63-.252a6.753 6.753 0 0 0-.579-.203 5.512 5.512 0 0 0-.614-.149 5.377 5.377 0 0 0-1-.076 1.122 1.122 0 0 0-.207.029c-.181.044-.302.128-.361.249-.059.122-.066.274-.021.455a1.177 1.177 0 0 0 .217.469c.08.114.173.23.276.346.103.116.21.23.322.343.111.112.215.219.31.321.096.101.177.192.244.274a.584.584 0 0 1 .124.209.213.213 0 0 1-.012.142c-.021.044-.06.072-.117.087-.219.053-.444.04-.672-.041a3.004 3.004 0 0 1-.671-.344 5.71 5.71 0 0 1-.621-.487 43.812 43.812 0 0 1-.521-.476 3.416 3.416 0 0 1-.276-.315 4.168 4.168 0 0 0-.266-.316 1.153 1.153 0 0 0-.276-.226.412.412 0 0 0-.317-.038.363.363 0 0 0-.254.182.408.408 0 0 0-.036.302c.015.059.062.146.142.265.08.118.18.254.297.406.117.152.247.315.39.489l.426.516.406.48c.128.15.233.278.317.384" transform="translate(60.616 34.123)"/>
        <path style="fill:#25171a;fill-opacity:1;fill-rule:nonzero;stroke:none" d="M0 0a34.282 34.282 0 0 1-.47-.686 44.338 44.338 0 0 0-.417-.616 3.03 3.03 0 0 1-.163-.273.879.879 0 0 1-.101-.282.18.18 0 0 1 .018-.121c.019-.031.055-.05.107-.057a.79.79 0 0 1 .287.026c.118.029.246.069.385.122a9.434 9.434 0 0 1 .905.419 10.942 10.942 0 0 1 .809.471.285.285 0 0 0 .166.036.176.176 0 0 0 .136-.099.334.334 0 0 0 .029-.207.598.598 0 0 0-.091-.238.707.707 0 0 0-.245-.217 13.634 13.634 0 0 0-.77-.491 7.238 7.238 0 0 0-.759-.392 3.942 3.942 0 0 0-.725-.244 1.883 1.883 0 0 0-.667-.035.985.985 0 0 0-.343.105.597.597 0 0 0-.207.182.588.588 0 0 0-.091.243.98.98 0 0 0 .001.281c.024.174.079.351.165.531.086.181.176.341.27.48l.401.601c.133.199.263.389.387.571l-.225.032c-.195.027-.326.077-.39.15a.278.278 0 0 0-.08.229.33.33 0 0 0 .052.125.489.489 0 0 0 .119.127c.05.038.109.068.176.09a.474.474 0 0 0 .221.018l.565-.079 1.411 2.04a.692.692 0 0 0 .299.249.666.666 0 0 0 .334.041.528.528 0 0 0 .276-.124c.079-.068.111-.166.093-.296a.507.507 0 0 0-.073-.195 3.382 3.382 0 0 0-.15-.222c-.041-.055-.088-.12-.146-.196l-.181-.242-.197-.268a14.94 14.94 0 0 0-.201-.272C.771 1.11.612.893.444.663L2.152.425c.083-.012.16-.027.229-.045a.541.541 0 0 0 .173-.078.281.281 0 0 0 .102-.123.413.413 0 0 0-.017-.302.259.259 0 0 0-.083-.096.4.4 0 0 0-.147-.059.844.844 0 0 0-.228-.011Z" transform="translate(66.23 32.748)"/>
        <path style="fill:#25171a;fill-opacity:1;fill-rule:nonzero;stroke:none" d="M0 0a.229.229 0 0 1-.048.008.894.894 0 0 1-.426-.057A1.29 1.29 0 0 1-.805-.24a1.653 1.653 0 0 1-.274-.28A4.28 4.28 0 0 1-1.3-.833a3.1 3.1 0 0 1-.272-.544c.127.056.258.121.394.195.137.075.265.145.385.213s.225.129.314.185c.089.055.153.093.189.111.164.09.277.177.342.26a.413.413 0 0 1 .101.22.162.162 0 0 1-.043.129A.214.214 0 0 1 0 0m.229.719C.521.703.735.621.872.473c.137-.149.199-.348.186-.598a1.068 1.068 0 0 0-.142-.458 1.617 1.617 0 0 0-.427-.473 4.28 4.28 0 0 0-.79-.471 8.875 8.875 0 0 0-1.224-.461.343.343 0 0 1 .151-.25.679.679 0 0 1 .359-.107c.162-.009.337.006.524.044s.374.089.559.154c.186.063.367.134.543.211a11.896 11.896 0 0 1 .84.403c.096.051.16.083.193.096a.22.22 0 0 0 .089.032.609.609 0 0 0 .072.002.189.189 0 0 0 .103-.035.253.253 0 0 0 .104-.16.37.37 0 0 0 .006-.077.81.81 0 0 0-.016-.112.345.345 0 0 0-.088-.147 5.962 5.962 0 0 0-.587-.386 7.909 7.909 0 0 0-.57-.307 6.587 6.587 0 0 0-.682-.289 5.332 5.332 0 0 0-.744-.206 3.007 3.007 0 0 0-.756-.058 1.238 1.238 0 0 0-.955.5 1.476 1.476 0 0 0-.236.49 1.8 1.8 0 0 0-.06.57c.008.151.047.315.116.494.071.178.166.355.289.532.123.177.27.349.443.514A2.9 2.9 0 0 0-.562.64c.25.067.512.093.791.079" transform="translate(69.66 32.667)"/>
        <path style="fill:#25171a;fill-opacity:1;fill-rule:nonzero;stroke:none" d="M0 0a2.577 2.577 0 0 1-.104-.287.854.854 0 0 1-.047-.289.221.221 0 0 1 .035-.126c.022-.03.063-.046.123-.044a.787.787 0 0 1 .275.075c.111.047.228.109.355.186.126.076.257.163.393.26A11.958 11.958 0 0 1 2.147.68a.265.265 0 0 0 .1.056.423.423 0 0 0 .1.019.226.226 0 0 0 .175-.068.276.276 0 0 0 .076-.195.533.533 0 0 0-.067-.25.839.839 0 0 0-.25-.277c-.219-.215-.44-.419-.664-.613a6.554 6.554 0 0 0-.669-.515 3.64 3.64 0 0 0-.666-.362 1.83 1.83 0 0 0-.648-.148 1.006 1.006 0 0 0-.364.047.616.616 0 0 0-.238.151.609.609 0 0 0-.131.235 1.086 1.086 0 0 0-.046.29c-.005.172.014.349.06.533.046.183.102.351.167.505.114.278.231.556.35.83l.326.756 1.496 3.459a.603.603 0 0 0 .247.299c.105.059.213.09.322.093.11.004.21-.023.302-.08s.14-.153.144-.286a.498.498 0 0 0-.04-.203 2.15 2.15 0 0 0-.106-.23 31.872 31.872 0 0 1-.296-.618 73.93 73.93 0 0 1-.366-.795 65.444 65.444 0 0 1-.401-.892l-.401-.904C.529 1.224.407.946.293.684L0 0" transform="translate(72.143 31.088)"/>
        <path style="fill:#25171a;fill-opacity:1;fill-rule:nonzero;stroke:none" d="M0 0a.725.725 0 0 0 .02.255A.707.707 0 0 0 .647.8c.204.019.35-.005.438-.076a.399.399 0 0 0 .151-.286.713.713 0 0 0-.017-.224.729.729 0 0 0-.096-.235.647.647 0 0 0-.187-.193.637.637 0 0 0-.294-.098C.425-.334.269-.315.174-.256A.378.378 0 0 0 0 0m-.46-1.241a.57.57 0 0 0 .185.231.48.48 0 0 0 .23.086.495.495 0 0 0 .357-.094.42.42 0 0 0 .178-.313l-.004-.097a.305.305 0 0 0-.024-.098L.363-1.77l-.068-.184-.06-.169-.071-.198a7.357 7.357 0 0 0-.113-.301 5.676 5.676 0 0 1-.117-.333 3.002 3.002 0 0 1-.089-.333.929.929 0 0 1-.021-.295c.009-.095.039-.154.09-.18a.392.392 0 0 1 .207-.023c.098.01.198.041.301.094.102.052.205.118.307.195.102.078.202.165.298.262.096.096.187.193.271.29.084.097.162.189.232.278.072.089.13.167.176.235.064.075.13.115.2.122a.186.186 0 0 0 .164-.069.357.357 0 0 0 .082-.209.63.63 0 0 0-.035-.264.75.75 0 0 0-.171-.278c-.16-.2-.325-.393-.494-.578a5.004 5.004 0 0 0-.526-.5 3.187 3.187 0 0 0-.556-.366 1.596 1.596 0 0 0-.583-.176c-.284-.028-.515.021-.692.15-.178.129-.282.348-.314.658-.015.161-.009.321.021.48.03.158.07.314.118.466.049.151.101.299.157.44.057.143.104.278.14.406a9.422 9.422 0 0 0 .181.522l.142.387" transform="translate(75.13 34.355)"/>
        <path style="fill:#25171a;fill-opacity:1;fill-rule:nonzero;stroke:none" d="M0 0a1.389 1.389 0 0 1-.562-.261 2.014 2.014 0 0 1-.457-.482 2.131 2.131 0 0 1-.281-.604 1.327 1.327 0 0 1-.032-.623 1.08 1.08 0 0 1 .05-.166.429.429 0 0 1 .095-.145.379.379 0 0 1 .167-.09.54.54 0 0 1 .259.003c.2.04.385.126.554.259a1.963 1.963 0 0 1 .684 1.075c.05.213.056.418.017.614a1.178 1.178 0 0 1-.047.164.446.446 0 0 1-.086.15.358.358 0 0 1-.143.098A.4.4 0 0 1 0 0m.854-2.003C.63-2.414.369-2.734.072-2.965a2.406 2.406 0 0 0-1.021-.46 1.394 1.394 0 0 0-.553-.015.934.934 0 0 0-.401.175.945.945 0 0 0-.267.325 1.601 1.601 0 0 0-.147.428 2.32 2.32 0 0 0-.042.56c.006.198.029.391.067.583l.062.308.039.21.026.151.024.135.033.163c.012.061.031.141.054.24l.842 3.667a.464.464 0 0 0 .065.147.714.714 0 0 0 .446.316c.159.032.277.022.353-.027a.31.31 0 0 0 .142-.209.572.572 0 0 0-.007-.235 1.918 1.918 0 0 0-.069-.249c-.157-.542-.3-1.089-.427-1.641-.127-.551-.269-1.1-.427-1.646.094.109.195.216.303.322.108.107.224.205.346.296.122.091.252.171.388.239.138.069.283.119.434.149a.968.968 0 0 0 .34.003C.793.95.906.91 1.014.849a.96.96 0 0 0 .282-.248.918.918 0 0 0 .165-.385c.008-.034.011-.106.011-.213 0-.108-.007-.232-.021-.369a4.74 4.74 0 0 0-.065-.428 2.302 2.302 0 0 0-.118-.397.146.146 0 0 1 .107-.052.538.538 0 0 1 .133.013c.159.032.312.084.462.157.149.072.287.153.415.242.128.088.244.177.348.266.105.088.192.166.262.23.032.054.072.085.121.095a.2.2 0 0 0 .168-.048.313.313 0 0 0 .106-.19.632.632 0 0 0-.002-.245.97.97 0 0 0-.128-.293 10.499 10.499 0 0 0-.416-.357 3.833 3.833 0 0 0-.904-.556 2.45 2.45 0 0 0-.499-.156.997.997 0 0 0-.315-.015.658.658 0 0 0-.272.097" transform="translate(79.185 33.408)"/>
        <path style="fill:#25171a;fill-opacity:1;fill-rule:nonzero;stroke:none" d="M0 0a.262.262 0 0 1-.047-.009l-.046-.014a.904.904 0 0 1-.333-.191A1.256 1.256 0 0 1-.667-.51a1.646 1.646 0 0 1-.156-.359 3.553 3.553 0 0 1-.145-.712 3.55 3.55 0 0 1-.011-.265c.097.098.197.205.298.324.101.117.196.229.285.335.087.106.164.201.227.284.065.084.109.14.137.172.121.142.197.263.227.364.032.1.036.18.018.241a.163.163 0 0 1-.087.105C.084 0 .042.007 0 0m-.042.753c.279.09.509.089.689-.001.181-.09.309-.255.386-.492.045-.142.056-.301.031-.48a1.582 1.582 0 0 0-.232-.592 4.195 4.195 0 0 0-.571-.722 8.878 8.878 0 0 0-.98-.866.341.341 0 0 1 .23-.179.669.669 0 0 1 .374.027c.154.05.312.126.474.228.162.101.318.215.468.341.151.126.294.256.433.391a13.904 13.904 0 0 1 .641.675c.072.082.12.135.147.157a.203.203 0 0 0 .071.063l.067.027a.19.19 0 0 0 .11.004.308.308 0 0 0 .089-.044.254.254 0 0 0 .063-.068.327.327 0 0 0 .033-.07.715.715 0 0 0 .025-.111.339.339 0 0 0-.029-.168 4.168 4.168 0 0 0-.125-.19 8.162 8.162 0 0 0-.71-.869 6.39 6.39 0 0 0-.536-.512 5.115 5.115 0 0 0-.622-.458 3.045 3.045 0 0 0-.685-.323 1.248 1.248 0 0 0-1.071.129 1.456 1.456 0 0 0-.395.373 1.786 1.786 0 0 0-.258.512 1.576 1.576 0 0 0-.067.503c.002.191.028.392.08.601.052.208.128.422.231.637.104.216.232.419.385.609.154.19.335.361.544.513.209.152.445.27.71.355" transform="translate(83.326 34.737)"/>
        <path style="fill:#25171a;fill-opacity:1;fill-rule:nonzero;stroke:none" d="M0 0a4.733 4.733 0 0 0 .608.725C.714.828.817.918.92.996c.101.078.197.138.288.178.145.064.271.079.382.045.109-.034.201-.133.273-.297a1.271 1.271 0 0 0 .084-.253.876.876 0 0 0-.013-.359 5.442 5.442 0 0 0-.126-.478 8.688 8.688 0 0 0-.184-.524c-.068-.18-.133-.345-.19-.495a7.687 7.687 0 0 1-.14-.39c-.034-.108-.045-.177-.033-.206a.19.19 0 0 1 .029-.051c.007-.008.023-.007.05.005.14.152.295.327.463.527a37.378 37.378 0 0 1 .958 1.197c.143.188.263.351.361.487.023.029.046.055.071.081a.297.297 0 0 0 .078.054.21.21 0 0 0 .17.006.225.225 0 0 0 .126-.127.52.52 0 0 0 .02-.296 1.325 1.325 0 0 0-.185-.439l-.273-.407c-.101-.151-.206-.309-.316-.471a20.965 20.965 0 0 0-.341-.484 9.065 9.065 0 0 0-.344-.443 3.826 3.826 0 0 0-.332-.352 1.148 1.148 0 0 0-.302-.213c-.223-.1-.412-.12-.571-.062a.587.587 0 0 0-.37.395c-.04.152-.06.308-.057.467.002.159.016.315.04.47.025.153.054.302.09.447.035.145.067.281.094.406.027.126.046.239.054.34a.515.515 0 0 1-.031.253.154.154 0 0 1-.031.044C.698.063.681.065.658.056a.832.832 0 0 1-.172-.129 2.562 2.562 0 0 1-.441-.535.674.674 0 0 1-.105-.287 6.998 6.998 0 0 1-.026-.422 62.734 62.734 0 0 1-.017-.528c-.004-.184-.008-.365-.009-.543l-.005-.459a1.058 1.058 0 0 0-.04-.319 1.156 1.156 0 0 0-.295-.501.71.71 0 0 0-.194-.139.275.275 0 0 0-.202-.02c-.06.019-.11.073-.148.16a.728.728 0 0 0-.051.348c.009.134.015.28.017.435l.009.533A83.35 83.35 0 0 0-.977-.759a.544.544 0 0 0-.176.093.472.472 0 0 0-.14.189.443.443 0 0 0-.041.222c.008.07.03.136.069.196a.65.65 0 0 0 .156.164c.065.05.137.093.217.129.084.037.171.067.261.09.091.023.175.034.254.034A.546.546 0 0 0-.168.324.21.21 0 0 0-.041.208.113.113 0 0 0-.033.165l.002-.063.002-.063a.113.113 0 0 1 .008-.043c.002-.007.005-.009.008-.008l.005.002z" transform="translate(86.494 35.967)"/>
        <path style="fill:#25171a;fill-opacity:1;fill-rule:nonzero;stroke:none" d="M0 0a.992.992 0 0 1-.347-.352 1.432 1.432 0 0 1-.182-.49 1.656 1.656 0 0 1-.009-.54 1.38 1.38 0 0 1 .305-.686.683.683 0 0 1 .17-.157.439.439 0 0 1 .212-.074.42.42 0 0 1 .253.071c.14.082.253.201.341.353.088.152.148.319.18.501.031.181.032.364.003.553a1.443 1.443 0 0 1-.306.694.576.576 0 0 1-.161.147.415.415 0 0 1-.205.06A.484.484 0 0 1 0 0m-.239.939c.115.07.248.127.398.175.15.049.302.07.457.064a.962.962 0 0 0 .826-.499c.054-.091.104-.202.149-.333s.081-.275.108-.431A.294.294 0 0 1 1.85-.1a.4.4 0 0 1 .14.053.58.58 0 0 1 .18.18c.056.083.107.177.154.283.048.106.091.22.13.342a7.209 7.209 0 0 1 .176.679c.02.101.037.185.049.254.009.034.028.06.058.078.043.025.094.026.154.002a.355.355 0 0 0 .159-.155.784.784 0 0 0 .092-.314 1.18 1.18 0 0 0-.07-.478L2.984.402a3.941 3.941 0 0 0-.127-.468 2.303 2.303 0 0 0-.193-.43.83.83 0 0 0-.289-.301.822.822 0 0 0-.251-.099.943.943 0 0 0-.295-.016 3.27 3.27 0 0 0-.098-.686A2.74 2.74 0 0 0 .48-3.259a1.219 1.219 0 0 0-.325-.125A1.142 1.142 0 0 0-.7-3.26a1.063 1.063 0 0 0-.375.393 2.325 2.325 0 0 0-.2.471 3.375 3.375 0 0 0-.133.632 3.952 3.952 0 0 0-.015.717c.018.25.069.496.155.738s.212.471.379.687c.167.216.384.403.65.561" transform="translate(90.698 37.987)"/>
    </g>
</svg>
