<svg xmlns="http://www.w3.org/2000/svg" viewBox="0 0 578.462 580">
    <defs>
        <linearGradient id="a" spreadMethod="pad" gradientTransform="rotate(-90 237.767 27.321) scale(32.3713)" gradientUnits="userSpaceOnUse" y2="0" x2="1" y1="0" x1="0">
            <stop offset="0" style="stop-opacity:1;stop-color:#fff"/>
            <stop offset="1" style="stop-opacity:1;stop-color:#e5b61b"/>
        </linearGradient>
        <clipPath id="b" clipPathUnits="userSpaceOnUse">
            <path d="M0 419.439h421.028V0H0Z"/>
        </clipPath>
    </defs>
    <path style="fill:url(#a);stroke:none" d="m288.483 159.281-.107-.194-.607-1.095-1.18-.424-31.018-11.132-.545-.196-.579.001-84.508.013h-.485l-.466.14-34.346 10.265-1.238.37-.664 1.109-.23.385-.665 1.111.262 1.269 6.431 31.181.237 1.152.909.746 17.275 14.185 15.182 40.047 1.767 4.661 3.626-3.42 1.419-1.339 11.22 22.882.188.381.277.323 15.959 18.557 2.819 3.278 2.445-3.565 17.343-25.275 17.788-1.803 2.182-.222.656-2.092 7.474-23.847 5.623 1.049 3.257.608.62-3.255 6.617-34.739 12.823-26.811.175-.365.082-.395 2.329-11.26.25-1.207z" transform="matrix(2.33645 0 0 -2.33645 -202.626 780)"/>
    <g clip-path="url(#b)" transform="matrix(2.33645 0 0 -2.33645 -202.626 780)">
        <path style="fill:#e5b61b;fill-opacity:1;fill-rule:nonzero;stroke:none" d="m0 0-.107-.193-.607-1.096-1.18-.424-31.018-11.132-.545-.196-.579.001-84.508.014h-.485l-.466.139-34.346 10.265-1.238.37-.664 1.109-.23.385-.665 1.112.262 1.268 6.431 31.181.237 1.152.909.746 17.275 14.185 15.182 40.048 1.767 4.66 3.626-3.42 1.419-1.339 11.22 22.882.188.382.277.322 15.959 18.558 2.819 3.277 2.445-3.565 17.343-25.275 17.788-1.803 2.182-.221.656-2.093 7.474-23.847 5.623 1.049 3.257.608.62-3.255 6.617-34.739 12.823-26.81.175-.366.082-.395L.347 2.284l.25-1.207zm-77.97 171.532c-66.77 0-121.093-54.322-121.093-121.094 0-66.77 54.323-121.092 121.093-121.092 66.772 0 121.094 54.322 121.094 121.092 0 66.772-54.322 121.094-121.094 121.094" transform="translate(288.483 159.28)"/>
        <path style="fill:#25171a;fill-opacity:1;fill-rule:nonzero;stroke:none" d="M0 0c-33.103 0-64.224-12.891-87.63-36.298-23.407-23.406-36.298-54.527-36.298-87.63 0-33.101 12.891-64.222 36.298-87.629 23.406-23.407 54.527-36.297 87.63-36.297 33.102 0 64.223 12.89 87.63 36.297 23.406 23.407 36.297 54.528 36.297 87.629 0 33.103-12.891 64.224-36.297 87.63C64.223-12.891 33.102 0 0 0m0-5.669c65.312 0 118.258-52.946 118.258-118.259 0-65.311-52.946-118.258-118.258-118.258-65.313 0-118.258 52.947-118.258 118.258C-118.258-58.615-65.313-5.669 0-5.669" transform="translate(210.514 333.647)"/>
        <path style="fill:#25171a;fill-opacity:1;fill-rule:nonzero;stroke:none" d="M0 0c-1.893-9.912-5.82-19.45-11.131-28.085-5.348-8.611-12.118-16.391-20.126-22.531 7.024 7.223 13.334 15.001 18.56 23.5C-7.428-18.646-3.293-9.522 0 0" transform="translate(310.437 182.958)"/>
        <path style="fill:#25171a;fill-opacity:1;fill-rule:nonzero;stroke:none" d="M0 0c3.293-9.522 7.427-18.646 12.697-27.116 5.226-8.499 11.535-16.277 18.56-23.5-8.008 6.14-14.778 13.92-20.126 22.531C5.82-19.45 1.892-9.912 0 0" transform="translate(111.004 182.958)"/>
        <path style="fill:#25171a;fill-opacity:1;fill-rule:nonzero;stroke:none" d="M0 0c.006.062.019.121.019.184 0 .053-.011.103-.016.155L29.799 5.79a.94.94 0 0 1 .722-.438L32.293-9.17a.94.94 0 0 1-.48-.337z" transform="translate(137.464 159.98)"/>
        <path style="fill:#25171a;fill-opacity:1;fill-rule:nonzero;stroke:none" d="m0 0 3.332-3.651a.95.95 0 0 1-.097-.408c0-.319.166-.588.405-.765l-17.363-31.298S-.177-.22 0 0" transform="translate(175.702 246.271)"/>
        <path style="fill:#25171a;fill-opacity:1;fill-rule:nonzero;stroke:none" d="m0 0 .018.003 6.604-14.119a1.788 1.788 0 0 1-.747-1.451c0-.47.185-.894.479-1.213L-7.483-32.174a1.21 1.21 0 0 1-.575.158c-.604 0-1.084-.439-1.196-1.01l-10.006-1.972a.966.966 0 0 1-.085.174z" transform="translate(180 241.265)"/>
        <path style="fill:#25171a;fill-opacity:1;fill-rule:nonzero;stroke:none" d="M0 0a.868.868 0 0 1 .83-.637l.01.002 7.622-24.956-26.311 27.312c.02.027.04.052.056.082z" transform="translate(245.703 259.013)"/>
        <path style="fill:#25171a;fill-opacity:1;fill-rule:nonzero;stroke:none" d="M0 0a1.22 1.22 0 0 1 .931-.602l5.766-31.896L-7.251-1.81a.855.855 0 0 1 .34.522z" transform="translate(262.535 233.648)"/>
        <path style="fill:#25171a;fill-opacity:1;fill-rule:nonzero;stroke:none" d="M0 0a.938.938 0 0 1-.62.401v34.598c.354.033.677.167.941.376L30.846 8.893a1.791 1.791 0 0 1-.132-.668c0-.15.023-.292.058-.431z" transform="translate(198.061 150.431)"/>
        <path style="fill:#25171a;fill-opacity:1;fill-rule:nonzero;stroke:none" d="M0 0a.96.96 0 0 1-.206.336l6.58 9.013a.946.946 0 0 1 .41-.099c.394 0 .729.237.88.574L25.397 0Z" transform="translate(170.935 150.232)"/>
        <path style="fill:#25171a;fill-opacity:1;fill-rule:nonzero;stroke:none" d="m0 0 16.685 26.979a1.75 1.75 0 0 1 .794-.194c.265 0 .515.062.742.165L30.604 5.366a.966.966 0 0 1-.275-.673c0-.07.025-.131.04-.197L.643-.941C.535-.561.308-.232 0 0" transform="translate(136.765 161.59)"/>
        <path style="fill:#25171a;fill-opacity:1;fill-rule:nonzero;stroke:none" d="M0 0c.518.013-.01-.517 0 0l10.592 2.124c.012-.129.027-.259.076-.373L-4.891-14.113a1.71 1.71 0 0 1-.227.123z" transform="translate(160.13 205.771)"/>
        <path style="fill:#25171a;fill-opacity:1;fill-rule:nonzero;stroke:none" d="M0 0a.858.858 0 0 1-.172-.494c0-.185.07-.346.167-.487l-27.282-27.706a1.218 1.218 0 0 1-.699.272l-3.243 31.171c.289.227.486.564.486.961 0 .427-.229.785-.557 1.009l4.372 22.588.001-.001c.176 0 .33.066.467.155z" transform="translate(254.074 233.035)"/>
        <path style="fill:#25171a;fill-opacity:1;fill-rule:nonzero;stroke:none" d="M0 0c0-.159.054-.3.127-.429l-13.846-11.92a.845.845 0 0 1-.369.166v44.63a.3.3 0 0 1 .032.007L.377.702A.863.863 0 0 1 0 0" transform="translate(269.036 199.248)"/>
        <path style="fill:#25171a;fill-opacity:1;fill-rule:nonzero;stroke:none" d="M0 0c0-.091.033-.17.051-.254l-27.782-10.022 25.633 20.312c.161-.077.337-.127.528-.127.153 0 .296.036.431.087L.817 1.157A1.236 1.236 0 0 1 0 0" transform="translate(284.167 160.855)"/>
        <path style="fill:#25171a;fill-opacity:1;fill-rule:nonzero;stroke:none" d="M0 0c.072-.052.138-.112.22-.148l-3.529-19.534c-.025.002-.047.015-.073.015a.951.951 0 0 1-.821-.487l-11.009 3.145c.006.054.017.107.017.162 0 .381-.121.733-.324 1.023z" transform="translate(171.232 207.014)"/>
        <path style="fill:#25171a;fill-opacity:1;fill-rule:nonzero;stroke:none" d="m0 0 12.869-20.211a.964.964 0 0 1-.269-.664.95.95 0 0 1 .336-.719L9.252-35.066a1.85 1.85 0 0 1-.31.031c-.091 0-.18-.014-.269-.028L-.071-.022c.023.008.049.013.071.022" transform="translate(188.333 224.035)"/>
        <path style="fill:#25171a;fill-opacity:1;fill-rule:nonzero;stroke:none" d="M0 0c.04 0 .075.02.114.023l3.233-31.072a1.234 1.234 0 0 1-.397-.357l-35.687 20.993c.067.188.111.39.111.602 0 .074-.013.144-.021.214L-.961.485C-.733.197-.396 0 0 0" transform="translate(222.088 235.508)"/>
        <path style="fill:#25171a;fill-opacity:1;fill-rule:nonzero;stroke:none" d="m0 0 22.032-.338c.114-.405.415-.718.817-.842l4.355-41.862a1.683 1.683 0 0 1-.28-.116L-.099-.718a.948.948 0 0 1 .147.481C.048-.153.021-.078 0 0" transform="translate(202.819 203.397)"/>
        <path style="fill:#25171a;fill-opacity:1;fill-rule:nonzero;stroke:none" d="M0 0a1.769 1.769 0 0 1-.968.36l-4.344 41.771c.126.033.241.083.348.152l27.24-16.022c-.005-.04-.024-.076-.024-.118 0-.142.042-.271.102-.389z" transform="translate(231.65 160.077)"/>
        <path style="fill:#25171a;fill-opacity:1;fill-rule:nonzero;stroke:none" d="M0 0a.83.83 0 0 1 .31-.125v-44.63a.858.858 0 0 1-.353-.154L-27.16-28.957c.075.16.125.336.125.525 0 .274-.106.513-.256.719z" transform="translate(254.306 231.82)"/>
        <path style="fill:#25171a;fill-opacity:1;fill-rule:nonzero;stroke:none" d="m0 0 35.789-21.052c-.002-.027-.016-.05-.016-.076l-22.127.339a.95.95 0 0 1-.758.395c-.033 0-.06-.015-.091-.018L-.119-.127c.043.04.081.084.119.127" transform="translate(189.012 224.521)"/>
        <path style="fill:#25171a;fill-opacity:1;fill-rule:nonzero;stroke:none" d="M0 0a.967.967 0 0 1-.335.205v18.419a.933.933 0 0 1 .362.475l26.749.903c.025-.189.075-.368.153-.534z" transform="translate(168.728 166.978)"/>
        <path style="fill:#25171a;fill-opacity:1;fill-rule:nonzero;stroke:none" d="m0 0-26.683-.9a.948.948 0 0 1-.262.631l3.568 19.755c.361.052.662.252.853.546L.308.912A1.782 1.782 0 0 1 0 0" transform="translate(195.493 187.312)"/>
        <path style="fill:#25171a;fill-opacity:1;fill-rule:nonzero;stroke:none" d="m0 0 11.08-3.166a.944.944 0 0 1 .81-.762v-18.255a.545.545 0 0 1-.085-.037L-.564-.661c.239.169.431.396.564.661" transform="translate(155.84 189.366)"/>
        <path style="fill:#25171a;fill-opacity:1;fill-rule:nonzero;stroke:none" d="m0 0 27.033 19.544c.015-.014.031-.025.047-.038L9.142-5.062a.942.942 0 0 1-.435.115.938.938 0 0 1-.545-.19L-.121-.547c.079.14.137.294.137.467C.016-.052.002-.027 0 0" transform="translate(169.012 166.363)"/>
        <path style="fill:#25171a;fill-opacity:1;fill-rule:nonzero;stroke:none" d="m0 0 17.938 24.567c.223-.132.476-.215.749-.241v-34.597a.944.944 0 0 1-.575-.333L.253-.71c.001.02.011.035.011.055A.957.957 0 0 1 0 0" transform="translate(178.422 161.104)"/>
        <path style="fill:#25171a;fill-opacity:1;fill-rule:nonzero;stroke:none" d="m0 0 3.658 13.382a.947.947 0 0 1 .337-.069c.107 0 .205.03.302.062l26.86-42.185L.913-2.572c.155.265.25.57.25.899C1.163-.905.678-.256 0 0" transform="translate(197.905 188.88)"/>
        <path style="fill:#25171a;fill-opacity:1;fill-rule:nonzero;stroke:none" d="m0 0 49.157 12.845L23.051-7.843a.95.95 0 0 1-.807.466.959.959 0 0 1-.853-.536L-.133-.507C-.062-.35-.021-.178 0 0" transform="translate(232.34 158.44)"/>
        <path style="fill:#25171a;fill-opacity:1;fill-rule:nonzero;stroke:none" d="m0 0-49.073-12.822c-.044.164-.11.319-.196.461l22.409 25.818a.869.869 0 0 1 .275-.056.86.86 0 0 1 .566.221L.064.459A1.242 1.242 0 0 1-.014.068C-.014.044-.002.024 0 0" transform="translate(281.367 171.939)"/>
        <path style="fill:#25171a;fill-opacity:1;fill-rule:nonzero;stroke:none" d="M0 0c.304.072-.09-.296 0 0l32.541-7.975a.867.867 0 0 1 .525-.676l-4.354-22.496a1.228 1.228 0 0 1-.379.076 1.243 1.243 0 0 1-1.243-1.243c0-.05.022-.092.027-.14L-4.516-42.52a1.78 1.78 0 0 1-1.009.846z" transform="translate(193.755 269.066)"/>
        <path style="fill:#25171a;fill-opacity:1;fill-rule:nonzero;stroke:none" d="M0 0a1.77 1.77 0 0 1 1.065-.358c.093 0 .181.013.27.027l8.745-35.041a1.805 1.805 0 0 1-.67-.411l-22.897 19.174c.034.114.07.227.07.352 0 .356-.152.671-.392.898z" transform="translate(186.603 224.263)"/>
        <path style="fill:#25171a;fill-opacity:1;fill-rule:nonzero;stroke:none" d="m0 0 8.256-4.574a.932.932 0 0 1-.181-.531c0-.266.108-.507.282-.682L1.78-14.795a.923.923 0 0 1-.371.097L-.36-.187A.953.953 0 0 1 0 0" transform="translate(168.677 165.554)"/>
        <path style="fill:#25171a;fill-opacity:1;fill-rule:nonzero;stroke:none" d="M0 0a1.789 1.789 0 0 1 2.927.027L24.453-7.38H-29.17Z" transform="translate(229.116 157.612)"/>
        <path style="fill:#25171a;fill-opacity:1;fill-rule:nonzero;stroke:none" d="m0 0-26.164 13.204c.001.023.013.042.013.065a.857.857 0 0 1-.127.427l13.845 11.92a.868.868 0 0 1 .536-.199c.02 0 .038.011.057.012L.235.159A1.245 1.245 0 0 1 0 0" transform="translate(281.812 172.95)"/>
        <path style="fill:#25171a;fill-opacity:1;fill-rule:nonzero;stroke:none" d="m0 0-5.296-39.962a1.775 1.775 0 0 1-.343-.052l-6.613 14.137a.961.961 0 0 1 .258.647.948.948 0 0 1-.138.468z" transform="translate(192.866 267.443)"/>
        <path style="fill:#25171a;fill-opacity:1;fill-rule:nonzero;stroke:none" d="M0 0c.017-.007.038-.005.056-.011l-4.826-13.16a1.764 1.764 0 0 1-.457.067c-.99 0-1.793-.803-1.793-1.793 0-.585.285-1.099.717-1.426l-16.684-26.979c-.039.02-.076.043-.117.06l5.975 29.215c.503.034.075-.138 0 0z" transform="translate(159.47 205.065)"/>
        <path style="fill:#25171a;fill-opacity:1;fill-rule:nonzero;stroke:none" d="m0 0 2.331.378-.92 5.676 3.46.56.921-5.675 4.354.707.744-4.587-13.606-2.207-1.795 11.059 3.461.562Z" transform="translate(106.57 191.917)"/>
        <path style="fill:#25171a;fill-opacity:1;fill-rule:nonzero;stroke:none" d="m0 0 .036-1.693 3.231.071L3.229.072c-.028 1.28-.653 1.877-1.657 1.855C.568 1.905-.029 1.28 0 0m6.745-.283.027-1.261 3.466.076.103-4.648-13.786-.305-.147 6.638c-.085 3.84 1.87 6.326 5.06 6.397 1.989.043 3.508-.868 4.39-2.504l4.191 2.99.109-4.964z" transform="translate(105.212 207.208)"/>
        <path style="fill:#25171a;fill-opacity:1;fill-rule:nonzero;stroke:none" d="m0 0 3.48-.408-1.339-11.383-13.689 1.611L-10.239.947l3.482-.41-.775-6.589 1.602-.189.682 5.788 3.324-.391-.681-5.788 1.8-.212z" transform="translate(113.26 227.066)"/>
        <path style="fill:#25171a;fill-opacity:1;fill-rule:nonzero;stroke:none" d="m0 0 3.393-.876L.53-11.969l-13.342 3.443 2.799 10.845 3.393-.875-1.658-6.423 1.563-.403L-5.26.259l3.241-.836-1.456-5.642 1.753-.453z" transform="translate(116.495 239.96)"/>
        <path style="fill:#25171a;fill-opacity:1;fill-rule:nonzero;stroke:none" d="m0 0-2.407 2.813c1.255.839 2.446 2.19 3.102 3.556.571 1.189.526 1.735.1 1.94-1.562.747-3.596-6.726-8.229-4.505-2.307 1.106-3.26 3.942-1.415 7.795.8 1.669 1.981 3.219 3.329 4.167l2.431-2.715c-1.208-.927-2.062-1.938-2.581-3.02-.587-1.223-.419-1.785.006-1.989 1.491-.715 3.542 6.75 8.121 4.556 2.272-1.089 3.263-3.945 1.416-7.795C2.878 2.726 1.359.878 0 0" transform="translate(120.992 245.385)"/>
        <path style="fill:#25171a;fill-opacity:1;fill-rule:nonzero;stroke:none" d="M0 0c-1.774 1.208-3.625.801-4.59-.615-.965-1.417-.666-3.289 1.109-4.498 1.775-1.208 3.627-.8 4.589.617C2.073-3.079 1.775-1.208 0 0m-6.12-8.988c-3.452 2.35-4.109 6.777-1.581 10.49C-5.172 5.215-.813 6.227 2.64 3.875c3.451-2.35 4.107-6.776 1.58-10.489-2.529-3.712-6.888-4.725-10.34-2.374" transform="translate(127.852 269.351)"/>
        <path style="fill:#25171a;fill-opacity:1;fill-rule:nonzero;stroke:none" d="M0 0c-3.078 2.904-3.012 7.307.026 10.529 1.851 1.961 4.026 2.832 6.247 2.605l-.108-3.93c-1.298.115-2.39-.182-3.241-1.083-1.323-1.403-1.24-3.267.291-4.713 1.532-1.444 3.397-1.418 4.721-.014.85.902 1.083 2.008.892 3.298l3.917.337c.358-2.203-.386-4.425-2.236-6.386C7.47-2.58 3.079-2.903 0 0" transform="translate(131.627 274.508)"/>
        <path style="fill:#25171a;fill-opacity:1;fill-rule:nonzero;stroke:none" d="m0 0 3.538 3.015 8.941-10.496-3.539-3.014Z" transform="translate(138.102 290.855)"/>
        <path style="fill:#25171a;fill-opacity:1;fill-rule:nonzero;stroke:none" d="m0 0 1.99-2.884-9.429-6.511-7.832 11.344 9.221 6.365 1.99-2.884-5.461-3.771.918-1.327 4.796 3.31L-1.904.888l-4.797-3.311 1.029-1.491z" transform="translate(159.447 294.069)"/>
        <path style="fill:#25171a;fill-opacity:1;fill-rule:nonzero;stroke:none" d="m0 0-3.599-1.834-1.637 3.213L6.103 7.157 7.74 3.945 4.142 2.111l4.626-9.074-4.144-2.111Z" transform="translate(160.68 302.283)"/>
        <path style="fill:#25171a;fill-opacity:1;fill-rule:nonzero;stroke:none" d="m0 0 1.658-4.719-4.386-1.541-1.676 4.777-7.798 6.51 4.628 1.624 4.236-3.564 1.098 5.437 4.237 1.488z" transform="translate(179.473 304.7)"/>
        <path style="fill:#25171a;fill-opacity:1;fill-rule:nonzero;stroke:none" d="M0 0c-.132.995-.817 1.521-2.085 1.354l-1.679-.223.423-3.2 1.679.222C-.395-1.68.131-.995 0 0m4.645.614C5.062-2.548 2.904-4.857-.9-5.36l-1.971-.261.443-3.358-4.606-.607-1.806 13.66 6.578.87c3.806.503 6.49-1.168 6.907-4.33" transform="translate(198.763 312.51)"/>
        <path style="fill:#25171a;fill-opacity:1;fill-rule:nonzero;stroke:none" d="m0 0-1.693.028-.052-3.23 1.693-.027c1.28-.02 1.901.58 1.917 1.584C1.882-.641 1.28-.021 0 0m-.542-6.729-1.26.021-.056-3.466-4.649.075.223 13.787L.354 3.58c3.84-.061 6.25-2.11 6.199-5.3-.033-1.99-1.002-3.471-2.67-4.292l2.826-4.301-4.963.081z" transform="translate(212.061 314.754)"/>
        <path style="fill:#25171a;fill-opacity:1;fill-rule:nonzero;stroke:none" d="M0 0c.368 2.114-.768 3.63-2.455 3.924-1.688.293-3.269-.751-3.635-2.865-.368-2.114.768-3.631 2.455-3.924C-1.947-3.158-.366-2.115 0 0m-10.707 1.86c.715 4.114 4.474 6.537 8.895 5.769 4.423-.77 7.144-4.318 6.429-8.432C3.902-4.915.144-7.338-4.278-6.57c-4.423.769-7.143 4.319-6.429 8.43" transform="translate(231.075 309.415)"/>
        <path style="fill:#25171a;fill-opacity:1;fill-rule:nonzero;stroke:none" d="m0 0 3.287 2.042C3.702.957 4.219.313 4.95.078c.919-.297 1.606.102 1.951 1.171l1.61 4.985-4.462 1.44 1.077 3.336 8.827-2.849-2.6-8.059C10.191-3.497 7.729-4.647 4.206-3.51 2.162-2.852.675-1.626 0 0" transform="translate(234.413 303.512)"/>
        <path style="fill:#25171a;fill-opacity:1;fill-rule:nonzero;stroke:none" d="m0 0-1.487-3.174-10.377 4.86 5.844 12.481L4.126 9.416 2.64 6.242l-6.009 2.814-.685-1.461 5.279-2.473-1.419-3.031-5.279 2.472-.769-1.641Z" transform="translate(257.614 296.286)"/>
        <path style="fill:#25171a;fill-opacity:1;fill-rule:nonzero;stroke:none" d="M0 0c2.319 3.544 6.668 4.253 10.376 1.824 2.258-1.477 3.499-3.467 3.666-5.695l-3.893-.584c-.114 1.3-.597 2.323-1.635 3.002-1.617 1.057-3.438.648-4.592-1.114-1.154-1.764-.801-3.597.815-4.654 1.038-.68 2.169-.715 3.406-.3l1.022-3.798c-2.108-.741-4.429-.4-6.687 1.08C-1.229-7.812-2.32-3.544 0 0" transform="translate(260.613 298.548)"/>
        <path style="fill:#25171a;fill-opacity:1;fill-rule:nonzero;stroke:none" d="m0 0-3.041 2.655 2.37 2.714 9.583-8.366-2.369-2.715-3.042 2.655-6.695-7.67-3.501 3.057z" transform="translate(277.95 290.3)"/>
        <path style="fill:#25171a;fill-opacity:1;fill-rule:nonzero;stroke:none" d="m0 0-2.892-1.984-6.486 9.454 11.369 7.801 6.344-9.242-2.892-1.984L1.687 9.52.354 8.604l3.3-4.806L.893 1.902l-3.299 4.809L-3.9 5.685Z" transform="translate(295.181 260.277)"/>
        <path style="fill:#25171a;fill-opacity:1;fill-rule:nonzero;stroke:none" d="m0 0 6.81 3.337L8.856-.838 2.169-4.114c-1.894-.928-2.245-2-1.674-3.167.572-1.168 1.635-1.547 3.528-.619l6.688 3.276 2.011-4.105-6.812-3.336c-3.716-1.821-6.947-.64-8.81 3.163C-4.764-5.098-3.716-1.82 0 0" transform="translate(298.512 260.02)"/>
        <path style="fill:#25171a;fill-opacity:1;fill-rule:nonzero;stroke:none" d="m0 0-.504 1.617-3.083-.96.504-1.617c.379-1.223 1.144-1.623 2.103-1.325C-.021-1.986.38-1.223 0 0m-6.559-1.588-.375 1.203-3.308-1.029-1.382 4.437L1.537 7.118 3.51.782C4.65-2.884 3.458-5.812.412-6.761c-1.898-.59-3.608-.132-4.908 1.196l-3.201-4.029-1.476 4.739z" transform="translate(311.04 240.671)"/>
        <path style="fill:#25171a;fill-opacity:1;fill-rule:nonzero;stroke:none" d="M0 0c2.125.303 3.217 1.852 2.976 3.547-.242 1.696-1.723 2.878-3.848 2.575-2.124-.303-3.218-1.851-2.977-3.548C-3.605.879-2.124-.303 0 0m-1.533 10.762c4.133.589 7.599-2.24 8.233-6.685C7.333-.368 4.795-4.052.66-4.641-3.473-5.229-6.937-2.4-7.571 2.045c-.634 4.445 1.905 8.128 6.038 8.717" transform="translate(311.842 220.918)"/>
        <path style="fill:#25171a;fill-opacity:1;fill-rule:nonzero;stroke:none" d="M0 0c1.005-.017 1.625.585 1.646 1.864l.028 1.694-3.231.052-.027-1.693C-1.604.637-1.004.017 0 0m-.074-4.687c-3.192.051-5.161 2.525-5.1 6.367l.032 1.988-3.386.055.075 4.648 13.786-.222-.108-6.637c-.061-3.841-2.11-6.25-5.299-6.199" transform="translate(314.078 205.739)"/>
        <path style="fill:#25171a;fill-opacity:1;fill-rule:nonzero;stroke:none" d="m0 0-3.465.539 1.768 11.324 13.619-2.124-1.727-11.071-3.463.541 1.022 6.557-1.596.248L5.261.255 1.953.771l.899 5.759-1.79.28Z" transform="translate(306.937 188.253)"/>
        <path style="fill:#25171a;fill-opacity:1;fill-rule:nonzero;stroke:none" d="M0 0a297.94 297.94 0 0 0 1.713 2.185c.653.824 1.34 1.685 2.058 2.583.719.896 1.445 1.798 2.175 2.705.732.908 1.421 1.752 2.071 2.535a970.936 970.936 0 0 0-2.76-1.634L2.621 6.819c-.833-.491-1.59-.931-2.273-1.324l-1.657-.947a20.694 20.694 0 0 0-.973-.359 6.982 6.982 0 0 0-.895-.245 3.327 3.327 0 0 0-.768-.07 1.205 1.205 0 0 0-.598.166c-.222.138-.366.292-.437.468-.073.175-.049.356.069.544.023.04.048.076.074.108a.454.454 0 0 0 .1.094 184.474 184.474 0 0 0 4.031 6.817l.482.779c.161.258.323.511.487.759a84.966 84.966 0 0 0-2.392-1.569 69.271 69.271 0 0 0-2.556-1.541 49.232 49.232 0 0 0-2.566-1.377 28.52 28.52 0 0 0-2.435-1.084c-.773-.3-1.489-.519-2.147-.66-.659-.142-1.226-.174-1.7-.097a7.585 7.585 0 0 0-1.039.245 3.19 3.19 0 0 0-.702.314c-.284.175-.458.363-.526.56a.624.624 0 0 0 .053.548c.122.196.332.349.629.459.296.11.63.131 1.001.064.449-.082 1.039-.015 1.765.202.728.218 1.535.531 2.419.94.885.408 1.822.894 2.812 1.455.99.561 1.973 1.142 2.949 1.744a102.44 102.44 0 0 1 2.821 1.8 185.042 185.042 0 0 1 4.218 2.867l.882.622c.261.174.523.255.788.244.265-.011.499-.081.704-.208.282-.175.432-.373.446-.595.016-.222-.098-.528-.342-.922a51.381 51.381 0 0 0-1.428-2.908c-.254-.479-.54-.987-.855-1.524a95.071 95.071 0 0 0-1.121-1.845A56.569 56.569 0 0 0 .897 9.724 74.092 74.092 0 0 1-.375 7.738a1828.88 1828.88 0 0 0 5.315 2.98c1.538.856 2.85 1.56 3.936 2.11 1.086.551 1.954.937 2.603 1.16.649.223 1.084.266 1.304.13l.083-.053c.024-.013.048-.026.074-.036a.659.659 0 0 0 .075-.038c.188-.117.264-.328.229-.633-.037-.302-.172-.643-.406-1.02-.27-.365-.614-.816-1.032-1.351-.419-.534-.882-1.12-1.391-1.757L8.802 7.222l-1.69-2.095c-.56-.691-1.1-1.365-1.621-2.021a92.893 92.893 0 0 1-1.397-1.794 2.315 2.315 0 0 1-.218-.297L3.675.69a20.68 20.68 0 0 1-.372-.626 21.006 21.006 0 0 0-.371-.625 8.81 8.81 0 0 0-.479-.692 1.92 1.92 0 0 0-.597-.527 1.38 1.38 0 0 0-.792-.16c-.302.018-.656.153-1.055.4a.72.72 0 0 0-.359.557c-.025.238.09.567.35.983" transform="translate(160.83 114.134)"/>
        <path style="fill:#25171a;fill-opacity:1;fill-rule:nonzero;stroke:none" d="M0 0a2.61 2.61 0 0 1-1.288.146 3.779 3.779 0 0 1-1.306-.417 4.335 4.335 0 0 1-1.127-.858 3.589 3.589 0 0 1-.755-1.187 4.616 4.616 0 0 1-.169-.553 1.946 1.946 0 0 1-.047-.606c.017-.199.082-.385.193-.557.112-.172.298-.308.557-.408a2.502 2.502 0 0 1 1.28-.13 3.98 3.98 0 0 1 1.321.442c.426.227.808.523 1.147.887.339.366.592.768.762 1.207.067.173.125.355.176.55.049.194.064.384.042.571a1.096 1.096 0 0 1-.21.519C.46-.235.268-.104 0 0m1.551 2.017a5.053 5.053 0 0 0 1.006-.538c.34-.23.631-.511.872-.841A2.78 2.78 0 0 0 3.907-.49c.078-.423.023-.884-.17-1.384a4.768 4.768 0 0 0-.446-.847 7.579 7.579 0 0 0-.712-.921.784.784 0 0 1 .212-.336c.096-.085.208-.153.338-.204.182-.069.401-.094.661-.076.261.018.538.065.834.139.296.073.601.17.914.287a17.43 17.43 0 0 1 1.689.737c.24.12.441.225.602.311a.325.325 0 0 0 .256.005c.12-.047.204-.151.251-.312.047-.163.026-.355-.06-.579-.088-.225-.254-.457-.5-.699-.248-.241-.613-.452-1.099-.631-.293-.145-.631-.312-1.011-.502-.381-.19-.771-.356-1.174-.499a6.02 6.02 0 0 0-1.198-.295 2.15 2.15 0 0 0-1.088.108 2.237 2.237 0 0 0-.614.355 2.547 2.547 0 0 0-.511.584 8.49 8.49 0 0 0-1.569-.91 6.992 6.992 0 0 0-1.721-.511 7.103 7.103 0 0 0-3.732.4 3.22 3.22 0 0 0-.787.467 3.032 3.032 0 0 0-.729.824 2.944 2.944 0 0 0-.4 1.143c-.061.43.006.899.202 1.408.133.345.348.739.647 1.177.298.44.661.872 1.088 1.298.426.425.912.822 1.456 1.191a7.22 7.22 0 0 0 1.773.877 6.514 6.514 0 0 0 2.031.332c.716.006 1.452-.137 2.211-.43" transform="translate(175.108 115.352)"/>
        <path style="fill:#25171a;fill-opacity:1;fill-rule:nonzero;stroke:none" d="M0 0c.275.341.571.573.886.695.316.122.604.152.864.086a.848.848 0 0 0 .521-.378c.131-.199.16-.452.084-.757a2.09 2.09 0 0 0-.132-.366 1.997 1.997 0 0 0-.256-.395c.261.203.607.391 1.04.565a8.03 8.03 0 0 0 1.394.412c.497.102.997.161 1.502.18.504.019.968-.024 1.389-.129.477-.118.846-.33 1.107-.637.261-.308.327-.735.191-1.283a3.844 3.844 0 0 0-.398-.972 7.85 7.85 0 0 0-.643-.957c-.243-.31-.503-.611-.779-.899-.276-.29-.545-.559-.807-.809l-.72-.687c-.218-.208-.391-.38-.521-.52a.783.783 0 0 1-.297-.456.288.288 0 0 1 .02-.204c.032-.065.096-.109.196-.135.062-.015.135-.026.22-.033a.811.811 0 0 1 .33.069c.53.059 1.08.163 1.655.306.573.145 1.131.308 1.671.493.542.186 1.045.381 1.509.585.465.205.857.396 1.177.575.088.044.17.072.249.081.078.008.15.007.212-.01a.428.428 0 0 0 .314-.263.762.762 0 0 0 .017-.476c-.068-.278-.232-.567-.491-.865-.259-.296-.614-.548-1.064-.751l-1.657-.662c-.501-.2-1.008-.378-1.516-.533a14.949 14.949 0 0 0-1.611-.388 13.824 13.824 0 0 0-1.941-.198 6.487 6.487 0 0 0-.68-.004 3.017 3.017 0 0 0-.545.077c-.476.118-.791.335-.945.656-.155.318-.173.716-.057 1.191.017.063.033.124.053.181.019.057.042.121.068.19.086.273.237.56.449.861.212.299.453.601.723.906.27.304.552.604.844.899.292.294.563.574.814.841.252.267.465.507.642.72.177.214.284.397.322.55a.542.542 0 0 1-.03.372c-.054.113-.156.187-.309.225-.574.143-1.161.106-1.761-.107a7.69 7.69 0 0 1-1.758-.902 14.727 14.727 0 0 1-1.63-1.277C-.6-4.8-1.054-5.216-1.45-5.584a8.528 8.528 0 0 1-.726-.828 11.551 11.551 0 0 0-.697-.827 3.086 3.086 0 0 0-.725-.593 1.088 1.088 0 0 0-.833-.102c-.313.078-.535.238-.666.479a1.065 1.065 0 0 0-.09.793c.039.154.162.385.371.694.211.31.469.665.778 1.066.308.399.648.827 1.023 1.283A177.285 177.285 0 0 0-.834-1.008C-.499-.614-.221-.279 0 0" transform="translate(183.63 113.345)"/>
        <path style="fill:#25171a;fill-opacity:1;fill-rule:nonzero;stroke:none" d="M0 0a81.544 81.544 0 0 1-1.231-1.797 146.21 146.21 0 0 0-1.093-1.618 7.257 7.257 0 0 1-.429-.717 2.292 2.292 0 0 1-.266-.74.48.48 0 0 1 .047-.315c.05-.083.144-.132.281-.151.192-.026.443-.004.752.069.309.075.645.181 1.011.322.365.139.751.305 1.161.496.41.189.813.389 1.211.6a30.923 30.923 0 0 1 2.125 1.237.736.736 0 0 0 .435.093.463.463 0 0 0 .355-.258.869.869 0 0 0 .078-.543 1.574 1.574 0 0 0-.241-.625c-.132-.205-.344-.396-.639-.569a37.532 37.532 0 0 0-2.021-1.287 18.96 18.96 0 0 0-1.992-1.03c-.652-.287-1.285-.5-1.902-.638a4.878 4.878 0 0 0-1.749-.092c-.368.05-.667.142-.901.273-.233.131-.415.29-.542.48a1.504 1.504 0 0 0-.24.637c-.032.234-.031.479.004.735.063.457.209.922.433 1.395.225.474.46.892.708 1.26.355.529.705 1.054 1.052 1.575.349.521.688 1.02 1.015 1.497l-.59.082c-.514.071-.854.203-1.023.396-.17.191-.241.391-.21.602a.837.837 0 0 0 .136.324c.078.124.181.236.312.335.131.098.284.178.461.236.177.06.369.075.58.046l1.482-.207 3.702 5.35c.233.322.494.541.785.654.291.113.583.15.876.109.275-.039.516-.147.724-.326.208-.178.289-.437.242-.776a1.309 1.309 0 0 0-.19-.512 7.956 7.956 0 0 0-.396-.581 25.426 25.426 0 0 0-.38-.515l-.474-.633c-.166-.225-.339-.46-.518-.706a55.454 55.454 0 0 0-.527-.711c-.392-.542-.809-1.114-1.247-1.716l4.478-.625c.219-.03.418-.069.599-.118.18-.048.331-.116.454-.204A.786.786 0 0 0 6.969.47a.942.942 0 0 0 .043-.497.994.994 0 0 0-.091-.296.663.663 0 0 0-.216-.25c-.1-.07-.227-.121-.387-.156a2.294 2.294 0 0 0-.598-.028Z" transform="translate(198.351 109.738)"/>
        <path style="fill:#25171a;fill-opacity:1;fill-rule:nonzero;stroke:none" d="M0 0a.699.699 0 0 1-.124.021c-.037 0-.077.003-.124.005a2.348 2.348 0 0 1-.994-.154 3.36 3.36 0 0 1-.867-.503 4.339 4.339 0 0 1-.72-.732 10.72 10.72 0 0 1-.579-.825 7.663 7.663 0 0 1-.438-.788 8.519 8.519 0 0 1-.276-.638 15 15 0 0 1 1.034.514c.358.195.694.379 1.009.557.315.178.589.339.824.484.234.145.4.244.495.293.429.237.728.463.898.682.169.218.258.41.266.576a.43.43 0 0 1-.114.339A.573.573 0 0 1 0 0m.601 1.884c.766-.041 1.329-.257 1.687-.646.359-.389.522-.912.485-1.567-.019-.387-.142-.788-.369-1.202-.225-.414-.598-.827-1.121-1.239C.762-3.183.07-3.594-.789-4.006c-.86-.413-1.931-.816-3.21-1.211a.902.902 0 0 1 .395-.654c.232-.165.546-.258.944-.279.424-.023.882.015 1.373.114s.98.232 1.467.401c.485.169.961.355 1.424.556.465.202.884.394 1.26.579.376.184.691.343.942.478.253.133.422.217.506.251a.57.57 0 0 0 .234.084c.07.005.134.007.187.004a.475.475 0 0 0 .274-.091.75.75 0 0 0 .178-.191.617.617 0 0 0 .092-.226.986.986 0 0 0 .017-.203 2.252 2.252 0 0 0-.044-.295c-.025-.116-.102-.243-.229-.383a6.651 6.651 0 0 0-.484-.351c-.274-.189-.626-.41-1.057-.665a22.274 22.274 0 0 0-1.493-.803 16.845 16.845 0 0 0-1.79-.758 13.736 13.736 0 0 0-1.952-.542 7.93 7.93 0 0 0-1.98-.152c-.554.03-1.04.163-1.457.398a3.311 3.311 0 0 0-1.049.917 3.776 3.776 0 0 0-.619 1.283 4.633 4.633 0 0 0-.157 1.494c.021.397.122.829.305 1.296.183.467.434.933.755 1.397.321.463.709.913 1.162 1.347.454.435.957.813 1.512 1.135a7.612 7.612 0 0 0 1.809.752 6.529 6.529 0 0 0 2.075.208" transform="translate(207.35 109.527)"/>
        <path style="fill:#25171a;fill-opacity:1;fill-rule:nonzero;stroke:none" d="M0 0a6.962 6.962 0 0 1-.275-.752 2.3 2.3 0 0 1-.122-.759.597.597 0 0 1 .092-.33c.059-.081.166-.12.323-.115.194.006.435.071.722.195.288.124.598.287.929.488.332.199.676.427 1.033.684a31.028 31.028 0 0 1 2.932 2.372.65.65 0 0 0 .259.148c.099.03.187.047.261.049a.597.597 0 0 0 .463-.18.72.72 0 0 0 .196-.508c.006-.194-.051-.412-.173-.657-.123-.244-.341-.487-.658-.728a40.291 40.291 0 0 0-1.74-1.608 17.84 17.84 0 0 0-1.756-1.351A9.885 9.885 0 0 0 .74-4.001a4.842 4.842 0 0 0-1.701-.386c-.38-.011-.697.031-.954.123a1.543 1.543 0 0 0-.622.398 1.525 1.525 0 0 0-.346.614 2.863 2.863 0 0 0-.12.759 5.09 5.09 0 0 0 .157 1.398c.119.481.266.922.438 1.325.301.731.607 1.458.918 2.179l.854 1.983 3.924 9.071c.155.365.371.625.649.783.277.156.559.238.846.247.285.009.55-.06.789-.211.241-.15.367-.4.377-.751a1.328 1.328 0 0 0-.101-.53 5.72 5.72 0 0 0-.28-.605c-.216-.443-.475-.982-.775-1.621A209.37 209.37 0 0 1 2.78 6.351c-.359-.813-.71-1.603-1.051-2.372-.341-.769-.662-1.498-.959-2.187C.473 1.103.215.506 0 0" transform="translate(213.864 105.386)"/>
        <path style="fill:#25171a;fill-opacity:1;fill-rule:nonzero;stroke:none" d="M0 0a2.004 2.004 0 0 0 .342 1.317c.137.2.317.371.539.515.223.143.495.231.817.264.533.052.917-.013 1.149-.199.232-.186.364-.435.396-.747a1.845 1.845 0 0 0-.046-.59 1.964 1.964 0 0 0-.251-.619 1.694 1.694 0 0 0-.493-.503 1.646 1.646 0 0 0-.768-.256C1.114-.877.706-.828.457-.672A.985.985 0 0 0 0 0m-1.206-3.257c.131.273.292.476.483.607.191.13.393.207.605.227.348.035.661-.048.936-.247.276-.2.432-.475.468-.823-.002-.084-.004-.168-.011-.253a.74.74 0 0 0-.064-.258 22.734 22.734 0 0 1-.437-1.123C.72-5.276.666-5.424.617-5.568l-.185-.521a35.745 35.745 0 0 0-.297-.79 14.723 14.723 0 0 1-.309-.873 8.425 8.425 0 0 1-.232-.875 2.5 2.5 0 0 1-.055-.771c.024-.249.103-.406.235-.471.132-.067.314-.087.543-.064.258.026.521.108.791.246.269.139.538.31.805.514.268.203.527.432.781.685.253.254.491.508.711.761.22.255.424.498.61.732.185.231.339.437.461.616.166.194.341.3.525.319a.49.49 0 0 0 .43-.18c.12-.137.191-.321.215-.55a1.697 1.697 0 0 0-.091-.691 1.984 1.984 0 0 0-.45-.729A31.008 31.008 0 0 0 3.81-9.728a12.979 12.979 0 0 0-1.382-1.309 8.446 8.446 0 0 0-1.455-.962 4.215 4.215 0 0 0-1.531-.461c-.745-.075-1.35.057-1.816.395-.466.338-.74.913-.821 1.722-.043.423-.026.843.053 1.261.079.416.183.823.31 1.222s.264.783.412 1.157c.149.373.271.725.367 1.06.034.125.097.317.187.577.089.26.185.525.288.795l.372 1.014" transform="translate(221.696 113.956)"/>
        <path style="fill:#25171a;fill-opacity:1;fill-rule:nonzero;stroke:none" d="M0 0a3.635 3.635 0 0 1-1.476-.684 5.283 5.283 0 0 1-1.196-1.263A5.52 5.52 0 0 1-3.41-3.53a3.445 3.445 0 0 1-.083-1.637c.028-.145.072-.289.129-.434.057-.143.14-.27.253-.38a.96.96 0 0 1 .436-.238c.181-.05.405-.047.678.008a3.424 3.424 0 0 1 1.455.679c.444.347.819.765 1.128 1.252.309.484.529 1.008.663 1.567.135.559.148 1.097.046 1.613a2.95 2.95 0 0 1-.121.429c-.054.15-.13.28-.228.393a.912.912 0 0 1-.377.257C.417.038.227.045 0 0m2.237-5.253C1.651-6.331.968-7.172.188-7.775a6.303 6.303 0 0 0-2.679-1.207c-.552-.111-1.035-.124-1.448-.042a2.485 2.485 0 0 0-1.053.461 2.5 2.5 0 0 0-.7.85 4.169 4.169 0 0 0-.387 1.124c-.093.463-.13.952-.11 1.471.018.517.077 1.026.175 1.526a74.461 74.461 0 0 1 .266 1.362c.025.15.05.283.068.395.021.112.042.231.066.352.022.123.051.265.083.427.034.163.082.372.143.63l2.208 9.619c.032.128.087.258.17.388a1.973 1.973 0 0 0 .703.656c.149.081.305.138.469.171.416.084.726.06.925-.069a.82.82 0 0 0 .372-.548c.035-.182.03-.388-.018-.619a4.93 4.93 0 0 0-.181-.651 77.834 77.834 0 0 1-1.12-4.303A80.273 80.273 0 0 0-2.979-.101c.246.286.51.567.794.846.285.277.586.535.907.774.319.239.66.448 1.019.628.361.18.739.31 1.138.39.281.056.578.059.891.008.31-.051.607-.156.889-.317A2.385 2.385 0 0 0 3.832.567c.019-.09.027-.277.027-.56 0-.283-.018-.606-.053-.966a12.24 12.24 0 0 0-.172-1.123 5.775 5.775 0 0 0-.309-1.044.396.396 0 0 1 .282-.134c.104-.004.22.007.347.032.417.084.821.222 1.212.414.391.19.754.402 1.089.634.335.231.64.464.914.699.274.233.503.434.685.603.085.14.192.223.319.248a.524.524 0 0 0 .442-.125c.141-.112.232-.279.276-.496.042-.208.04-.424-.006-.645-.045-.22-.157-.476-.335-.766-.36-.326-.724-.64-1.092-.94a11.123 11.123 0 0 0-1.145-.816 9.614 9.614 0 0 0-1.223-.64 6.513 6.513 0 0 0-1.31-.41 2.571 2.571 0 0 0-.828-.038c-.26.033-.499.117-.715.253" transform="translate(232.334 111.47)"/>
        <path style="fill:#25171a;fill-opacity:1;fill-rule:nonzero;stroke:none" d="M0 0a.823.823 0 0 1-.123-.023 8.825 8.825 0 0 0-.119-.039 2.371 2.371 0 0 1-.875-.499 3.383 3.383 0 0 1-.632-.778 4.273 4.273 0 0 1-.411-.94 9.573 9.573 0 0 1-.249-.975 8.244 8.244 0 0 1-.161-1.588c.257.257.518.539.784.848.265.308.513.601.745.88.231.277.431.526.598.745.168.22.287.369.358.45.317.373.517.692.598.955.08.264.095.475.045.633a.443.443 0 0 1-.228.277A.551.551 0 0 1 0 0m-.109 1.976c.731.233 1.333.232 1.806-.004.475-.237.811-.668 1.012-1.292.118-.369.145-.788.082-1.256-.064-.467-.267-.986-.607-1.556-.342-.571-.842-1.202-1.499-1.892-.657-.691-1.514-1.449-2.57-2.273a.902.902 0 0 1 .602-.47c.275-.072.601-.047.981.075.405.129.819.328 1.243.594.425.267.833.566 1.228.895.394.332.772.673 1.134 1.027a31.091 31.091 0 0 1 1.683 1.77c.188.216.316.354.384.414a.548.548 0 0 0 .189.162c.063.03.122.054.173.071a.498.498 0 0 0 .289.012.778.778 0 0 0 .233-.114.62.62 0 0 0 .166-.181.854.854 0 0 0 .088-.183c.025-.079.047-.176.064-.292.019-.115-.009-.262-.077-.44a7.45 7.45 0 0 0-.329-.498 17.035 17.035 0 0 0-.75-.997 22.08 22.08 0 0 0-1.111-1.281 17 17 0 0 0-1.404-1.346 13.875 13.875 0 0 0-1.631-1.2 7.866 7.866 0 0 0-1.798-.845c-.529-.17-1.03-.218-1.504-.147a3.304 3.304 0 0 0-1.305.485 3.808 3.808 0 0 0-1.035.978 4.644 4.644 0 0 0-.678 1.342c-.122.379-.179.818-.175 1.32.004.5.074 1.026.209 1.575.135.547.337 1.105.608 1.672.27.567.606 1.098 1.01 1.597.402.498.878.946 1.425 1.346a6.579 6.579 0 0 0 1.864.932" transform="translate(243.195 114.957)"/>
        <path style="fill:#25171a;fill-opacity:1;fill-rule:nonzero;stroke:none" d="M0 0a12.762 12.762 0 0 0 1.599 1.902c.275.27.546.505.814.711.268.206.52.361.757.466.38.169.713.208 1.001.119.289-.09.527-.35.719-.78.042-.093.081-.194.121-.304.038-.109.07-.228.097-.357.056-.239.044-.554-.036-.944a12.85 12.85 0 0 0-.33-1.253c-.14-.448-.301-.906-.48-1.375l-.5-1.3a19.894 19.894 0 0 1-.366-1.021c-.091-.283-.12-.464-.086-.54a.542.542 0 0 1 .075-.133c.018-.021.063-.017.13.013.37.398.774.858 1.215 1.382A91.826 91.826 0 0 1 7.242-.277c.377.497.693.923.949 1.28.057.076.12.145.187.212a.708.708 0 0 0 .202.141.557.557 0 0 0 .448.018.599.599 0 0 0 .331-.337c.088-.196.103-.453.05-.776-.054-.323-.216-.705-.484-1.149l-.716-1.068a137.19 137.19 0 0 0-.831-1.235 48.37 48.37 0 0 0-.893-1.271 21.309 21.309 0 0 0-.902-1.16 10.2 10.2 0 0 0-.871-.926c-.283-.263-.547-.448-.792-.556-.583-.261-1.081-.316-1.498-.166-.415.149-.721.443-.915.882a.709.709 0 0 0-.056.158 4.48 4.48 0 0 0-.149 1.223 8.8 8.8 0 0 0 .104 1.232c.066.402.143.793.237 1.173.093.381.176.737.248 1.067.07.33.118.627.141.891.025.263-.002.484-.081.662a.359.359 0 0 1-.082.115c-.036.034-.083.039-.142.013-.101-.046-.251-.158-.45-.336A6.669 6.669 0 0 1 .118-1.595c-.164-.27-.254-.52-.272-.751a20.232 20.232 0 0 0-.333-1.708 3.11 3.11 0 0 0-.32-.733 2.905 2.905 0 0 0-.455-.582 1.773 1.773 0 0 0-.507-.362c-.194-.087-.37-.105-.53-.054-.159.051-.29.19-.389.419-.042.093-.08.215-.113.368a1.922 1.922 0 0 0-.021.543c.024.355.225 1.569.262 2.466a1.43 1.43 0 0 0-.463.242 1.221 1.221 0 0 0-.366.498c-.09.201-.127.395-.108.581.019.186.08.356.182.514.102.156.238.3.407.431.171.131.361.244.571.338.22.097.448.175.685.236.236.059.458.089.665.09.207.001.389-.029.549-.089A.58.58 0 0 0-.105.546a.332.332 0 0 0 .02-.113L-.08.268c.002-.06.003-.116.006-.165a.301.301 0 0 1 .018-.112c.008-.018.016-.024.025-.02l.012.005z" transform="translate(251.502 118.18)"/>
        <path style="fill:#25171a;fill-opacity:1;fill-rule:nonzero;stroke:none" d="M0 0a2.594 2.594 0 0 1-.911-.921 3.793 3.793 0 0 1-.479-1.285 4.336 4.336 0 0 1-.021-1.416c.071-.481.225-.923.467-1.328a4.52 4.52 0 0 1 .33-.474c.131-.163.279-.302.447-.411a1.18 1.18 0 0 1 .559-.192c.204-.019.424.043.664.184.365.218.663.528.893.927.23.4.386.838.47 1.312.083.474.086.958.009 1.451A3.759 3.759 0 0 1 1.95-.809a5.22 5.22 0 0 1-.324.477 1.52 1.52 0 0 1-.424.386 1.07 1.07 0 0 1-.537.157C.469.218.247.146 0 0m-.628 2.467c.302.18.649.333 1.043.458.393.127.793.181 1.2.166a2.792 2.792 0 0 0 1.183-.32c.382-.199.71-.529.984-.99.142-.238.272-.529.39-.873.119-.344.631-2.346.624-3.299a8.51 8.51 0 0 0-.255-1.797 6.966 6.966 0 0 0-.661-1.668 7.187 7.187 0 0 0-1.09-1.479 7.009 7.009 0 0 0-1.532-1.21 3.237 3.237 0 0 0-.852-.33 3.01 3.01 0 0 0-2.244.327c-.377.218-.704.561-.982 1.03-.189.318-.365.73-.527 1.237a8.852 8.852 0 0 0-.347 1.656 10.089 10.089 0 0 0-.038 1.881 7.16 7.16 0 0 0 .406 1.935c.225.634.556 1.235.993 1.802.438.567 1.007 1.058 1.705 1.474" transform="translate(262.532 123.479)"/>
        <path style="fill:#25171a;fill-opacity:1;fill-rule:nonzero;stroke:none" d="m0 0-2.402-2.794-2.819-3.277-15.959-18.557-.277-.323-.236-.275-.16-.324-.187-.381-9.528-19.431-2.247 2.121-3.09 2.914-1.506-3.972-1.768-4.66L-55.093-88.3l-16.69-13.706-.909-.746-.776-.637-.202-.981-.237-1.152-6.431-31.181-.262-1.269-.222-1.081.566-.946.665-1.111.23-.385.664-1.109.565-.946 1.056-.315 1.238-.37 34.345-10.265.467-.14.396-.118h.901l84.506-.014h1.073l.464.166.545.196 31.02 11.132 1.179.424 1.005.36.517.934.608 1.097.105.191.598 1.08.508.919-.212 1.027-.249 1.207-2.331 11.26-.082.396-.07.338-.148.312-.175.364-12.663 26.478-6.548 34.378-.62 3.255-.529 2.775-2.776-.519-3.258-.607-3.15-.588-6.722 21.446-.656 2.094-.559 1.783-1.86.188-2.182.222-16.48 1.67-16.6 24.191-2.445 3.565zm-.253-4.642 2.445-3.564 17.343-25.275 17.788-1.803 2.183-.222.655-2.093 7.475-23.846 5.623 1.05 3.257.607.62-3.255 6.617-34.739 12.822-26.811.175-.365.082-.396 2.329-11.259.249-1.206-.596-1.078-.107-.194-.606-1.096-1.18-.423-31.019-11.132-.545-.196-.579.001-84.507.013h-.486l-.467.14-34.344 10.264-1.239.371-.664 1.109-.229.385-.665 1.111.26 1.268 6.432 31.181.237 1.153.91.746 17.274 14.184 15.183 40.048 1.766 4.66 3.626-3.42 1.419-1.338 11.221 22.881.187.382.278.322L-3.072-7.919z" transform="translate(209.668 298.178)"/>
    </g>
</svg>
